<?xml version="1.0" encoding="UTF-8" ?>
<svg width="668pt" height="44pt" viewBox="0.00 0.00 667.98 44.00" xmlns="http://www.w3.org/2000/svg" xmlns:xlink="http://www.w3.org/1999/xlink">
<g id="graph0" class="graph" transform="scale(1 1) rotate(0) translate(4 40)">
<title>Pipeline</title>
<polygon fill="#ffffff" stroke="transparent" points="-4,4 -4,-40 663.9792,-40 663.9792,4 -4,4"/>
<!-- Parser -->
<g id="node1" class="node">
<title>Parser</title>
<polygon fill="#add8e6" stroke="#000000" points="54,-36 0,-36 0,0 54,0 54,-36"/>
<text text-anchor="middle" x="27" y="-13.8" font-family="Times,serif" font-size="14.00" fill="#000000">Parser</text>
</g>
<!-- InitialPlacement -->
<g id="node2" class="node">
<title>InitialPlacement</title>
<polygon fill="#add8e6" stroke="#000000" points="197.6259,-36 90.1245,-36 90.1245,0 197.6259,0 197.6259,-36"/>
<text text-anchor="middle" x="143.8752" y="-13.8" font-family="Times,serif" font-size="14.00" fill="#000000">InitialPlacement</text>
</g>
<!-- Parser&#45;&gt;InitialPlacement -->
<g id="edge1" class="edge">
<title>Parser-&gt;InitialPlacement</title>
<path fill="none" stroke="#000000" d="M54.1073,-18C61.8485,-18 70.6311,-18 79.5989,-18"/>
<polygon fill="#000000" stroke="#000000" points="79.757,-21.5001 89.757,-18 79.757,-14.5001 79.757,-21.5001"/>
</g>
<!-- Wirelength -->
<g id="node3" class="node">
<title>Wirelength</title>
<polygon fill="#add8e6" stroke="#000000" points="312.7147,-36 233.7623,-36 233.7623,0 312.7147,0 312.7147,-36"/>
<text text-anchor="middle" x="273.2385" y="-13.8" font-family="Times,serif" font-size="14.00" fill="#000000">Wirelength</text>
</g>
<!-- InitialPlacement&#45;&gt;Wirelength -->
<g id="edge2" class="edge">
<title>InitialPlacement-&gt;Wirelength</title>
<path fill="none" stroke="#000000" d="M197.9873,-18C206.3606,-18 214.9767,-18 223.2538,-18"/>
<polygon fill="#000000" stroke="#000000" points="223.5131,-21.5001 233.513,-18 223.513,-14.5001 223.5131,-21.5001"/>
</g>
<!-- Nesterov -->
<g id="node4" class="node">
<title>Nesterov</title>
<polygon fill="#add8e6" stroke="#000000" points="415.0256,-36 348.9592,-36 348.9592,0 415.0256,0 415.0256,-36"/>
<text text-anchor="middle" x="381.9924" y="-13.8" font-family="Times,serif" font-size="14.00" fill="#000000">Nesterov</text>
</g>
<!-- Wirelength&#45;&gt;Nesterov -->
<g id="edge3" class="edge">
<title>Wirelength-&gt;Nesterov</title>
<path fill="none" stroke="#000000" d="M312.8088,-18C321.1852,-18 330.0691,-18 338.5792,-18"/>
<polygon fill="#000000" stroke="#000000" points="338.7151,-21.5001 348.715,-18 338.715,-14.5001 338.7151,-21.5001"/>
</g>
<!-- Legalizacion -->
<g id="node5" class="node">
<title>Legalizacion</title>
<polygon fill="#add8e6" stroke="#000000" points="539.7048,-36 451.109,-36 451.109,0 539.7048,0 539.7048,-36"/>
<text text-anchor="middle" x="495.4069" y="-13.8" font-family="Times,serif" font-size="14.00" fill="#000000">Legalizacion</text>
</g>
<!-- Nesterov&#45;&gt;Legalizacion -->
<g id="edge4" class="edge">
<title>Nesterov-&gt;Legalizacion</title>
<path fill="none" stroke="#000000" d="M415.1015,-18C423.1844,-18 432.0458,-18 440.8386,-18"/>
<polygon fill="#000000" stroke="#000000" points="441.0783,-21.5001 451.0782,-18 441.0782,-14.5001 441.0783,-21.5001"/>
</g>
<!-- Exportacion -->
<g id="node6" class="node">
<title>Exportacion</title>
<polygon fill="#add8e6" stroke="#000000" points="660.1921,-36 575.3427,-36 575.3427,0 660.1921,0 660.1921,-36"/>
<text text-anchor="middle" x="617.7674" y="-13.8" font-family="Times,serif" font-size="14.00" fill="#000000">Exportacion</text>
</g>
<!-- Legalizacion&#45;&gt;Exportacion -->
<g id="edge5" class="edge">
<title>Legalizacion-&gt;Exportacion</title>
<path fill="none" stroke="#000000" d="M539.5818,-18C547.8552,-18 556.5793,-18 565.0802,-18"/>
<polygon fill="#000000" stroke="#000000" points="565.2936,-21.5001 575.2936,-18 565.2936,-14.5001 565.2936,-21.5001"/>
</g>
</g>
</svg>